# xmcd CD database file
# Copyright (C) 1993-1998 Ti Kan
#
# Track frame offsets:
#  150
#  13705
#  34970
#  49837
#  66360
#  81807
#  103675
#  118032
#  132757
#  149230
#  166060
#  178240
#  192305
#  214805
#
# Disc length: 3014 seconds
#
# Revision: 1
# Processed by: cddbd v1.4b41PL1 Copyright (c) Steve Scherf et al.
# Submitted via: CDWizzard Release:4.24
#
DISCID=d30bc40e
DTITLE=The Barefoot Man - In The Bahamas
DYEAR=1900
DGENRE=
TTITLE0=Layin' Low In Abaco
TTITLE1=At Nippers (On Guana Bay)
TTITLE2=Conch'd Out At The Conch In
TTITLE3=Hopetown Ferry
TTITLE4=Conchy Joe's Daughter
TTITLE5=The Lady, The Sea
TTITLE6=Bahama Mama
TTITLE7=Crow Calypso
TTITLE8=The Fig Tree Song
TTITLE9=IHarbournate
TTITLE10=I've Got Abaco
TTITLE11=It Don't Get Better Than This
TTITLE12=Daybreak
TTITLE13=Let's Do It Again
EXTD=
EXTT0=
EXTT1=
EXTT2=
EXTT3=
EXTT4=
EXTT5=
EXTT6=
EXTT7=
EXTT8=
EXTT9=
EXTT10=
EXTT11=
EXTT12=
EXTT13=
PLAYORDER=
